<svg width="23" height="51" viewBox="0 0 23 51" fill="none" xmlns="http://www.w3.org/2000/svg">
<path d="M22.0041 20.4018C19.3729 8.81846 13.1666 5.01222 12.4999 3.55597C11.7666 2.52888 10.9729 0.572632 10.9729 0.572632C10.9687 0.612215 10.9645 0.637215 10.9624 0.674715V0.701798H10.9604C10.9562 0.733048 10.9541 0.753882 10.952 0.783048V0.814298H10.9479C10.9479 0.835132 10.9437 0.851799 10.9437 0.868465V0.922632H10.9374C10.9354 0.939298 10.9354 0.960132 10.9312 0.974715V1.01847H10.927C10.927 1.03305 10.927 1.04972 10.9229 1.06222V1.10388H10.9187C10.9187 1.12472 10.9166 1.14972 10.9145 1.17055V1.17472C10.9083 1.21013 10.902 1.24555 10.8958 1.27888V1.29555H10.8916C10.8895 1.30388 10.8854 1.31222 10.8854 1.32055V1.35597H10.8791V1.4018H10.8687V1.4393H10.8583V1.48305H10.8499V1.52263H10.8416V1.55805H10.8291V1.58722H10.8208V1.62472H10.8124V1.65388H10.802V1.68097H10.7958V1.71222H10.7874C10.7854 1.7143 10.7854 1.71847 10.7854 1.72055V1.74138H10.7791C10.777 1.74555 10.777 1.74972 10.777 1.75388V1.76638H10.7729C10.7708 1.77263 10.7687 1.78305 10.7687 1.78722C10.7624 1.8018 10.7541 1.81638 10.7479 1.83097V1.83513C10.7437 1.8393 10.7395 1.84555 10.7374 1.84972V1.86638H10.7291V1.88305H10.7187V1.89972H10.7124V1.92055H10.6999V1.94972H10.6916V1.95805H10.6833V1.97472H10.6749V1.99763H10.6666V2.0143H10.6541V2.03722H10.6458V2.05388H10.6354V2.07055H10.6291V2.09138H10.6187V2.10805H10.6104V2.12055H10.602V2.13722H10.5895V2.15597H10.5812V2.16847H10.5708V2.18513H10.5624V2.20805H10.552V2.21638H10.5458V2.23305H10.5333V2.24138H10.5249V2.26222H10.5166V2.27055H10.5083V2.28722H10.4979V2.29972H10.4916L10.4874 2.30805V2.31638H10.4833C10.4812 2.32055 10.4791 2.32055 10.4791 2.32472L10.477 2.3268C10.4749 2.33305 10.4729 2.33722 10.4687 2.34138V2.34763C10.4583 2.36013 10.4499 2.37263 10.4416 2.38513C10.4374 2.3893 10.427 2.39972 10.4229 2.40805V2.41222H10.4208C10.4187 2.4143 10.4145 2.41638 10.4145 2.41847V2.42472H10.4104L10.4041 2.43097L10.402 2.43305C10.402 2.43513 10.3979 2.43722 10.3958 2.44138V2.44972H10.3895L10.3854 2.45388V2.45805H10.3812C10.3812 2.46222 10.377 2.46222 10.377 2.4643V2.47055H10.3687C10.3687 2.47263 10.3666 2.47471 10.3645 2.4768V2.4893H10.3583V2.49763H10.3499V2.51013H10.3416V2.5268H10.3312V2.51013H10.3208V2.51847H10.3124V2.53097H10.302V2.54763H10.2916V2.55597H10.2833V2.56847H10.2749V2.5768H10.2666V2.59347H10.2541V2.6018H10.2458V2.6143H10.2354V2.62263H10.227V2.63305H10.2166V2.65388H10.2124V2.66222H10.1999V2.67263H10.1916V2.6768H10.1833V2.68513H10.1729V2.70597H10.1645V2.7143H10.1541V2.72263H10.1458V2.73513H10.1354V2.74347H10.1249V2.7518H10.1166V2.76013H10.1083V2.78096H10.0999V2.79138H10.0874V2.79972H10.0791V2.80805H10.0687V2.82055H10.0604V2.82888H10.0499V2.84347H10.0416V2.8518H10.0291V2.8643H10.0249V2.87263H10.0166V2.88097H10.0062V2.8893H9.99786V2.9018H9.98744V2.91013H9.98119C9.97911 2.91221 9.97911 2.9143 9.97911 2.9143V2.91847H9.97494L9.96661 2.9268C9.96661 2.9268 9.96244 2.93097 9.95827 2.93305V2.94555H9.94994V2.95597H9.94161V2.9643H9.93327V2.97263H9.92702L9.92077 2.97888V2.98513H9.91661L9.91244 2.9893V2.99555H9.90827C9.89786 3.00805 9.89369 3.01638 9.87911 3.02888C9.87494 3.03305 9.86244 3.04347 9.85411 3.04972C9.82911 3.06638 9.79786 3.09347 9.77286 3.11638C9.75619 3.1268 9.73952 3.14138 9.72702 3.1518L9.72494 3.15388C9.69161 3.18096 9.66036 3.20597 9.62286 3.23513V3.23722C9.57286 3.27888 9.52494 3.31846 9.46869 3.36638L9.46453 3.3643C9.34577 3.46222 9.22077 3.57263 9.07703 3.69555V3.69763H9.07494C8.72286 4.00596 8.30411 4.4018 7.83536 4.88097L7.80411 4.91221L7.79577 4.92055C4.96244 7.8518 0.497858 13.9601 0.0270249 23.831C-0.0146418 24.6476 -0.00630836 25.4414 0.039525 26.2143V26.233C0.266608 30.1226 1.48744 33.4435 3.01452 36.1414C3.62286 37.2164 4.27911 38.1955 4.94369 39.0705C7.23952 42.1018 9.58327 43.8997 10.1812 44.3351C11.0999 46.4664 11.0145 50.1247 11.0145 50.1247L12.3562 50.5726C12.3562 50.5726 12.0833 47.0289 12.4666 45.3185C12.5854 44.783 12.8666 44.3268 13.1937 43.9393C13.4145 43.783 14.0687 43.3122 14.8541 42.5955C14.8916 42.556 14.9124 42.5205 14.9458 42.483C18.1145 39.5289 24.0333 32.2539 22.0041 20.4018Z" fill="#47A248"/>
</svg>
